<svg width="25" height="25" viewBox="0 0 25 25" fill="none" xmlns="http://www.w3.org/2000/svg">
<path d="M12.49 1.80469C13.1132 1.80472 13.7139 1.89659 14.158 2.0625V2.06152L19.3562 4.00977H19.3572C20.6705 4.49896 21.7185 6.02034 21.7185 7.41699V15.1562C21.7185 15.7997 21.5143 16.5536 21.1599 17.2588C20.8499 17.8755 20.4414 18.4231 19.9978 18.8086L19.8054 18.9639L15.3259 22.3076L15.3201 22.3125C14.5561 22.9016 13.5425 23.208 12.4998 23.208C11.5234 23.2079 10.5682 22.9393 9.80249 22.4238L9.6521 22.3174L5.17456 18.9746H5.17358C4.65713 18.5895 4.17375 17.9725 3.81909 17.2656C3.46443 16.5587 3.26057 15.8048 3.2605 15.167V7.41699C3.2605 6.10748 4.18208 4.6884 5.37964 4.11328L5.6228 4.00977H5.62378L10.821 2.06152V2.0625C11.2652 1.89651 11.8666 1.80469 12.49 1.80469ZM12.4998 2.36621C12.0518 2.36745 11.5818 2.41993 11.1873 2.53906L11.0232 2.59375L11.0222 2.59473L5.82495 4.54199H5.82397C5.26202 4.75355 4.77091 5.19769 4.42358 5.7002C4.07615 6.20287 3.83383 6.82088 3.83374 7.42676V15.167C3.83381 15.7645 4.0391 16.4365 4.33276 17.0225C4.58964 17.535 4.93849 18.0311 5.33862 18.3838L5.51343 18.5254L9.99194 21.8682V21.8691C10.6946 22.3946 11.6115 22.6406 12.5017 22.6406C13.3363 22.6406 14.1951 22.4246 14.8816 21.9658L15.0164 21.8701L15.0183 21.8691L19.4968 18.5254H19.4978C19.9751 18.1674 20.3886 17.6032 20.6814 17.0176C20.9741 16.4321 21.1774 15.7634 21.1775 15.167V7.41699C21.1775 6.81523 20.9344 6.19893 20.5876 5.69727C20.2842 5.25824 19.871 4.86337 19.3982 4.62598L19.1912 4.53418L19.1863 4.53223L13.988 2.58398L13.9792 2.58105L13.8142 2.52832C13.4186 2.41509 12.9484 2.36499 12.4998 2.36621Z" fill="#FAFAFA" stroke="#FAFAFA"/>
<path d="M15.3848 9.36401C15.4782 9.27061 15.6302 9.25892 15.7383 9.32886L15.7822 9.36401C15.8754 9.45739 15.8872 9.60949 15.8174 9.71753L15.7822 9.76147L11.3027 14.24C11.2453 14.2974 11.1768 14.3229 11.1045 14.323C11.0502 14.323 10.9981 14.3084 10.9512 14.2771L10.9053 14.24L9.22852 12.5632C9.12169 12.4564 9.12169 12.2726 9.22852 12.1658C9.32189 12.0726 9.47399 12.0608 9.58203 12.1306L9.62598 12.1658L11.1045 13.6443L15.3848 9.36401Z" fill="#FAFAFA" stroke="#FAFAFA"/>
</svg>
