<svg width="25" height="25" viewBox="0 0 25 25" fill="none" xmlns="http://www.w3.org/2000/svg">
<g clip-path="url(#clip0_0_31)">
<path d="M7.29159 19.7917C8.44218 19.7917 9.37492 18.8589 9.37492 17.7083C9.37492 16.5577 8.44218 15.625 7.29159 15.625C6.14099 15.625 5.20825 16.5577 5.20825 17.7083C5.20825 18.8589 6.14099 19.7917 7.29159 19.7917Z" stroke="#FAFAFA" stroke-width="2" stroke-linecap="round" stroke-linejoin="round"/>
<path d="M17.7083 19.7917C18.8589 19.7917 19.7917 18.8589 19.7917 17.7083C19.7917 16.5577 18.8589 15.625 17.7083 15.625C16.5577 15.625 15.625 16.5577 15.625 17.7083C15.625 18.8589 16.5577 19.7917 17.7083 19.7917Z" stroke="#FAFAFA" stroke-width="2" stroke-linecap="round" stroke-linejoin="round"/>
<path d="M5.20825 17.7085H5.12492C4.02035 17.7085 3.12492 16.8131 3.12492 15.7085V13.5418M2.08325 5.2085H11.5416C12.6462 5.2085 13.5416 6.10393 13.5416 7.2085V17.7085M9.37492 17.7085H15.6249M19.7916 17.7085H19.8749C20.9795 17.7085 21.8749 16.8131 21.8749 15.7085V11.4585M21.8749 11.4585H13.5416M21.8749 11.4585L19.3325 7.22117C18.9711 6.61876 18.3201 6.25016 17.6175 6.25016H13.5416" stroke="#FAFAFA" stroke-width="2" stroke-linecap="round" stroke-linejoin="round"/>
<path d="M5 17.5H4.91667C3.8121 17.5 2.91667 16.6046 2.91667 15.5V13.3333M1.875 5H11.3333C12.4379 5 13.3333 5.89543 13.3333 7V17.5M9.375 17.5H15.4167M20 17.5V17.5C20.9205 17.5 21.6667 16.7538 21.6667 15.8333V11.25M21.6667 11.25H13.3333M21.6667 11.25L19.1243 7.01268C18.7628 6.41026 18.1118 6.04167 17.4093 6.04167H13.3333" stroke="#FAFAFA" stroke-width="2" stroke-linecap="round" stroke-linejoin="round"/>
<path d="M3.125 7.38647H7.29167" stroke="#FAFAFA" stroke-width="2" stroke-linecap="round" stroke-linejoin="round"/>
<path d="M1.13647 9.65918H5.30314" stroke="#FAFAFA" stroke-width="2" stroke-linecap="round" stroke-linejoin="round"/>
<path d="M3.125 11.9319H7.29167" stroke="#FAFAFA" stroke-width="2" stroke-linecap="round" stroke-linejoin="round"/>
</g>
<defs>
<clipPath id="clip0_0_31">
<rect width="25" height="25" fill="white"/>
</clipPath>
</defs>
</svg>
